<?xml version="1.0" encoding="utf-8"?>
<!-- Generator: Adobe Illustrator 23.0.2, SVG Export Plug-In . SVG Version: 6.00 Build 0)  -->
<svg version="1.1" id="Layer_1" xmlns="http://www.w3.org/2000/svg" xmlns:xlink="http://www.w3.org/1999/xlink" x="0px" y="0px"
	 viewBox="0 0 500 500" style="enable-background:new 0 0 500 500;" xml:space="preserve">
<style type="text/css">
	.st0{fill:#454EA0;}
	.st1{fill:#1B1529;}
	.st2{fill:#EA87B6;}
	.st3{fill:#2F315A;}
	.st4{fill:#46B4C3;}
	.st5{fill:#FFFFFF;}
	.st6{fill:#FFDF6E;}
	.st7{fill:#B3678D;}
	.st8{fill:#0091A5;}
</style>
<g>
	<g>
		<polyline class="st0" points="158.45,323.85 158.45,458.86 339.09,458.86 339.09,323.85 158.45,323.85 		"/>
	</g>
	<g>
		<g>
			<path class="st1" d="M263.86,459.67l-0.07,17.07l-21.05-7.24c0,0,2.5-11.37,4.81-17.5c2.31-6.13,5.2-13.26,5.64-16.08
				c0.44-2.82,1.65-11.5,1.65-11.5l7.48-0.04L263.86,459.67z"/>
		</g>
		<g>
			<path class="st2" d="M273.42,436.53c-4.43,10.92-9.42,24.97-9.62,28.07s1.15,8.06-1.01,8.6s-13.84-3.32-15.04-7.34
				c-1.2-4.02,3.17-14.79,5.94-22.5c2.77-7.71,4.79-16.6,4.79-16.6s6.66-5.74,7.64-10.73c1.07-5.45,3.75-26.51,3.75-26.51
				l17.61,9.46C287.49,398.98,277.85,425.6,273.42,436.53z"/>
		</g>
		<g>
			<polygon class="st1" points="255.65,428.91 243.77,446.05 244.65,447.82 254.81,437.99 			"/>
		</g>
		<g>
			<path class="st1" d="M265.7,463.55c0,0-3.35,0.28-7.42-1.02c-4.07-1.3-10.93-8.32-10.93-8.32l-2.99,9.56c0,0,7.08-0.48,11.36,1.6
				c4.28,2.09,8.27,5.3,8.27,5.3L265.7,463.55z"/>
		</g>
	</g>
	<g>
		<g>
			<path class="st1" d="M232.12,458.42l1.56,17l-21.65-5.2c0,0,1.4-11.56,3.11-17.88s3.91-13.69,4.07-16.55
				c0.17-2.85,0.55-11.61,0.55-11.61l7.44-0.76L232.12,458.42z"/>
		</g>
		<g>
			<path class="st2" d="M239.43,434.47c-3.36,11.3-6.99,25.76-6.89,28.86c0.1,3.1,1.91,7.91-0.19,8.65
				c-2.1,0.74-14.1-1.98-15.67-5.86s1.74-15.02,3.76-22.96c2.02-7.94,3.18-16.99,3.18-16.99s6.7-5.98,7.26-11.03
				c0.88-7.96,0.52-27.13,0.52-27.13l16.46,14.12C247.86,402.14,242.79,423.17,239.43,434.47z"/>
		</g>
		<g>
			<polygon class="st1" points="221,428.59 210.82,446.79 211.86,448.46 221.04,437.7 			"/>
		</g>
		<g>
			<path class="st1" d="M234.33,462.11c0,0-3.31,0.6-7.48-0.3c-4.17-0.9-11.68-7.24-11.68-7.24l-2.07,9.8c0,0,7.01-1.16,11.46,0.51
				s8.74,4.48,8.74,4.48L234.33,462.11z"/>
		</g>
	</g>
	<g>
		<polygon class="st3" points="183.1,279.69 158.45,323.85 339.09,323.85 313.13,279.69 		"/>
	</g>
	<g>
		<path class="st3" d="M313.13,279.69H183.1V99.92c0-35.91,29.11-65.02,65.02-65.02h0c35.91,0,65.02,29.11,65.02,65.02V279.69z"/>
	</g>
	<g>
		<g>
			<polygon class="st0" points="69.54,104.5 201.19,104.5 181.5,94.1 87.81,94.1 			"/>
		</g>
		<g>
			<rect x="87.81" y="38.46" class="st0" width="93.7" height="55.95"/>
		</g>
		<g>
			<path class="st1" d="M91.48,91.57c0,0,0.58-50.73,0-50.08s86.88,0,86.88,0v50.08H91.48z"/>
		</g>
		<g>
			<rect x="69.54" y="104.49" class="st4" width="131.64" height="2.59"/>
		</g>
		<g>
			<polygon class="st5" points="134.49,59.17 139.29,58.42 140.15,51.88 140.88,58.44 146.53,58.99 141.1,59.98 139.96,65.74 
				139.33,59.91 			"/>
		</g>
		<g>
			<polygon class="st5" points="109.72,82.41 112.39,81.99 112.86,78.36 113.27,82.01 116.41,82.31 113.39,82.86 112.76,86.06 
				112.41,82.82 			"/>
		</g>
		<g>
			<polygon class="st6" points="98.54,61.81 101.72,61.31 102.28,56.98 102.76,61.33 106.51,61.69 102.91,62.34 102.16,66.16 
				101.74,62.3 			"/>
		</g>
		<g>
			<polygon class="st6" points="157.91,82.2 161.09,81.7 161.66,77.37 162.14,81.71 165.88,82.08 162.29,82.73 161.54,86.54 
				161.12,82.69 			"/>
		</g>
		<g>
			<circle class="st5" cx="149.79" cy="68.76" r="0.72"/>
		</g>
		<g>
			<circle class="st5" cx="117.09" cy="48.93" r="1.12"/>
		</g>
		<g>
			<circle class="st5" cx="163.68" cy="51.99" r="0.82"/>
		</g>
		<g>
			<circle class="st5" cx="119.02" cy="67.64" r="0.61"/>
		</g>
		<g>
			<circle class="st5" cx="145.66" cy="85.28" r="0.61"/>
		</g>
	</g>
	<g>
		<rect x="215.98" y="183.24" class="st1" width="57.66" height="72.81"/>
	</g>
	<g>
		<g>
			<path class="st4" d="M349.5,408.84c0,0-7.49-14.56-3.07-23.79c4.42-9.23,8.76-8.49,6.06-19.69c-2.7-11.2,4.68-18.58,10.59-21.74
				c5.91-3.16,5.78-20.63,5.78-20.63s13.56,9.63,14.4,20.37c0.84,10.73-6.28,8.76-6.64,14.37s7.44,5.3,5.11,18.03
				c-1.22,6.66-9.9,5.85-11.43,11.01C365.01,404.49,349.5,408.84,349.5,408.84z"/>
		</g>
		<g>
			<path class="st1" d="M346.75,418.41c-0.06,0-0.11-0.01-0.17-0.02c-0.43-0.09-0.7-0.51-0.61-0.94
				c0.05-0.22,4.87-22.38,13.88-36.33c10.38-16.06,12.82-29.23,13.04-37.45c0.24-8.89-1.99-14.06-2.02-14.11
				c-0.18-0.4,0-0.87,0.4-1.05c0.4-0.17,0.87,0,1.05,0.4c0.38,0.87,9.2,21.57-11.14,53.07c-8.85,13.7-13.61,35.59-13.66,35.81
				C347.45,418.16,347.12,418.41,346.75,418.41z"/>
		</g>
	</g>
	<g>
		<path class="st1" d="M272.91,244.11c0,0,13.22,19.2,27.18,45.77c10.39,19.77,13.06,40.61,13.06,40.61l-17.74,79.09
			c0,0-24.75-17.67-42.38-5.27c-17.65,12.42-22.11,12.34-31.39,13.08c-8.17,0.65-29.75-6.94-29.75-6.94l26.19-45.82
			c7.02-12.28,4.48-27.77-6.03-37.24c-9.44-8.5-18.95-19.11-19.24-27.53c-0.58-16.84,24.52-57.14,24.52-57.14L272.91,244.11z"/>
	</g>
	<g>
		<path class="st2" d="M291.4,163.01l32.74,61.56c1.08,2.04,0.65,4.55-1.06,6.11l-48.87,44.49l-6.66-11.62l28.62-34.21
			c1.36-1.62,1.56-3.91,0.51-5.75l-23.04-40.35L291.4,163.01z"/>
	</g>
	<g>
		<path class="st2" d="M223.4,184.39l-69.72-0.9c-2.31-0.03-4.3-1.62-4.85-3.87l-15.85-65.16l13.74,0.67l16.23,41.54
			c0.77,1.97,2.68,3.25,4.79,3.21l46.46-0.79L223.4,184.39z"/>
	</g>
	<g>
		<g>
			<rect x="217.82" y="155.14" class="st2" width="47.29" height="24.95"/>
		</g>
		<g>
			<path class="st6" d="M249.34,69.15c0,0,13.1-4.88,21.73,8.66c5.46,8.56,0.83,17.34,4.48,21.24c10.91,11.66,1.31,34.41,0.71,34.11
				c-1.91-0.96-3.52-1.55-4.91-1.88c-0.3-0.07,2.84-7.34,0.47-12.26c-0.07-0.15,0.35,3.54-0.19,6.86c-0.43,2.64-1.91,5.13-2.03,5.12
				c-5.56-0.47-7.4,3.84-14.11,3.84c0,0-8.97-49.24-8.73-54.9C246.99,74.27,249.34,69.15,249.34,69.15z"/>
		</g>
		<g>
			<path class="st2" d="M237.37,130.71l-6.16,25.57c0,0-1.03,5.56,7.48,6.81c8.51,1.25,17.81-4.42,17.81-4.42l1.47-34.38
				L237.37,130.71z"/>
		</g>
		<g>
			<path class="st1" d="M225.54,155.14H186.9l16.01,46.15c0,0,8.4,8.81,17.76,8.81c8.24,0,16.77-8.81,23.81-8.81
				c5.41,0,13.98,7.59,23.57,7.59c10.73,0,18.33-7.59,18.33-7.59l11.18-46.15h-34.84l-0.01,15.04h-37.56L225.54,155.14z"/>
		</g>
		<g>
			<path class="st7" d="M257.82,128.63l-0.25,4.72c0,0-3.47,4.62-9.7,5.63c-9.54,1.54-10.81-1.17-10.81-1.17l3.53-9.6L257.82,128.63
				z"/>
		</g>
		<g>
			<path class="st2" d="M231.68,91.15c0,0-1.32,41.89,19.02,41.89c10.87,0,17.08-18.72,18.96-30.13
				c1.43-8.69-2.47-17.48-10.01-22.03c-2.63-1.59-5.71-2.67-9.22-2.67C236.7,78.21,231.68,91.15,231.68,91.15z"/>
		</g>
		<g>
			
				<ellipse transform="matrix(0.1644 -0.9864 0.9864 0.1644 117.7764 354.8129)" class="st2" cx="268.32" cy="107.89" rx="6.29" ry="5.51"/>
		</g>
		<g>
			<path class="st1" d="M254.68,99.48c0,0,0.73-2.02,1.4-2.14c0.67-0.12,3.85-0.49,6.78-0.06c2.93,0.43,4.83,2.2,4.83,2.2
				s-6.41-0.92-8.92-0.67C256.27,99.05,254.68,99.48,254.68,99.48z"/>
		</g>
		<g>
			<path class="st1" d="M251.31,112.9c-0.62,0-1.29-0.15-1.96-0.54c-0.45-0.26-0.83-0.36-1.06-0.27c-0.17,0.06-0.23,0.21-0.23,0.21
				c-0.07,0.2-0.29,0.32-0.49,0.25c-0.21-0.07-0.32-0.29-0.25-0.49c0.02-0.05,0.18-0.5,0.69-0.69c0.47-0.18,1.06-0.07,1.73,0.32
				c1.58,0.92,3.09,0.18,3.77-0.26c-0.21-0.24-0.46-0.63-0.72-1.25c-2.12-5.11-0.06-8.82,0.03-8.97c0.11-0.19,0.34-0.25,0.53-0.15
				c0.19,0.11,0.25,0.35,0.15,0.53c-0.02,0.04-1.95,3.55,0.01,8.29c0.42,1,0.79,1.23,0.79,1.23c0.11,0.06,0.19,0.18,0.2,0.31
				s-0.03,0.25-0.12,0.34C254.36,111.77,253.04,112.9,251.31,112.9z"/>
		</g>
		<g>
			<path class="st1" d="M262.88,103.87c-0.09,0-0.18-0.03-0.25-0.09c-0.03-0.02-0.72-0.52-2.83-0.49c-2.51,0.02-3.96,0.48-3.97,0.48
				c-0.2,0.06-0.42-0.05-0.49-0.25c-0.07-0.21,0.05-0.43,0.25-0.49c0.06-0.02,1.56-0.49,4.2-0.52c2.48-0.04,3.27,0.6,3.35,0.67
				c0.16,0.14,0.18,0.39,0.04,0.55C263.1,103.82,262.99,103.87,262.88,103.87z"/>
		</g>
		<g>
			<g>
				<circle class="st1" cx="255.66" cy="107.12" r="0.38"/>
			</g>
			<g>
				<circle class="st1" cx="257.93" cy="107.98" r="0.38"/>
			</g>
			<g>
				<circle class="st1" cx="260.03" cy="108.04" r="0.42"/>
			</g>
			<g>
				<circle class="st1" cx="261.87" cy="107.64" r="0.42"/>
			</g>
			<g>
				<circle class="st1" cx="263.27" cy="106.79" r="0.42"/>
			</g>
		</g>
		<g>
			<circle class="st1" cx="259.58" cy="104.1" r="1.47"/>
		</g>
		<g>
			<path class="st6" d="M253.08,71.13c0,0-22.68-19.8-34.11,5.31c-6.01,13.2,3.74,25.45,1.34,28.3s-11.67,0.25-11.67,8.11
				c0,16.93,12.2,15.3,9.81,24.15c-2.4,8.86-11.41,2.33-11.41,11.39c0,9.91,8.48,16.13,8.48,16.13h29.04c0,0-10.13-20.45-5.03-24.08
				c10.25-7.29,9.45-22.81,1.3-31.6c-5.64-6.08-2.42-20.88,3.2-20.88C251.46,87.98,253.08,71.13,253.08,71.13z"/>
		</g>
		<g>
			<path class="st6" d="M249.49,78.19c0,0-3.38,6.35,9.85,11.31c10.52,3.95,8.08,19.74,8.08,19.74s8.42-15.54,3.02-25.77
				C264.67,72.51,249.49,78.19,249.49,78.19z"/>
		</g>
		<g>
			<path class="st1" d="M254.67,119.39c0,0-1.72-1.58-2.78-1.84c-1.06-0.26-1.8,0.49-1.8,0.49s-0.86-0.89-1.8-0.36
				c-1.25,0.72-2.75,1.7-2.75,1.7s2,2.51,4.65,2.51C252.64,121.9,254.67,119.39,254.67,119.39z"/>
		</g>
		<g>
			<path class="st1" d="M248.01,99.48c0,0-0.73-2.02-1.4-2.14c-0.67-0.12-3.85-0.49-6.78-0.06c-2.93,0.43-4.83,2.2-4.83,2.2
				s6.41-0.92,8.92-0.67S248.01,99.48,248.01,99.48z"/>
		</g>
		<g>
			<path class="st1" d="M238.83,103.86c-0.11,0-0.22-0.05-0.3-0.14c-0.13-0.16-0.12-0.4,0.04-0.54c0.08-0.07,0.88-0.71,3.35-0.67
				c2.64,0.02,4.14,0.5,4.2,0.52c0.21,0.07,0.32,0.29,0.25,0.49c-0.07,0.21-0.29,0.32-0.49,0.25c-0.01,0-1.46-0.46-3.97-0.48
				c-2.19-0.03-2.83,0.48-2.84,0.49C239,103.83,238.91,103.86,238.83,103.86z"/>
		</g>
		<g>
			<g>
				<circle class="st1" cx="246.05" cy="107.12" r="0.38"/>
			</g>
			<g>
				<circle class="st1" cx="243.78" cy="107.98" r="0.38"/>
			</g>
			<g>
				<circle class="st1" cx="241.68" cy="108.04" r="0.42"/>
			</g>
			<g>
				<circle class="st1" cx="239.83" cy="107.64" r="0.42"/>
			</g>
			<g>
				<circle class="st1" cx="238.44" cy="106.79" r="0.42"/>
			</g>
		</g>
		<g>
			<circle class="st1" cx="242.13" cy="104.1" r="1.47"/>
		</g>
	</g>
	<g>
		<path class="st2" d="M140.55,107.05c4.86,1.92,6.17,8.08,6.17,8.08l-11.01,0.25l-18.47-1.49c0,0-13.07-2.94-13.54-3.69
			c-1.43-2.27,0.63-3.24,1.31-3.04L140.55,107.05z"/>
	</g>
	<g>
		<polygon class="st0" points="214.75,87.91 216.95,77.68 225.23,84.84 233.05,67 238.7,77.35 248.52,53.93 257.94,77.35 
			263.95,62.39 269.2,84.84 273.86,80.13 276.15,90.16 		"/>
	</g>
	<g>
		<g>
			<path class="st5" d="M271.16,280.78l-9.78,10.95c-0.73,0.82-1.99,0.89-2.81,0.16l-23.78-21.23c-0.82-0.73-0.89-1.99-0.16-2.81
				l9.78-10.95c0.73-0.82,1.99-0.89,2.81-0.16L271,277.97C271.82,278.7,271.9,279.96,271.16,280.78z"/>
		</g>
		<g>
			<path class="st1" d="M243.26,270.01l-2.28,2.56c-0.36,0.4-0.97,0.43-1.36,0.08l-2.65-2.37c-0.4-0.36-0.43-0.97-0.08-1.36
				l2.28-2.56c0.36-0.4,0.97-0.43,1.36-0.08l2.65,2.37C243.58,269,243.61,269.61,243.26,270.01z"/>
		</g>
		<g>
			<circle class="st6" cx="238.55" cy="269.64" r="0.77"/>
		</g>
		<g>
			<circle class="st6" cx="240.03" cy="267.98" r="0.77"/>
		</g>
		<g>
			<circle class="st6" cx="241.71" cy="269.48" r="0.77"/>
		</g>
	</g>
	<g>
		<g>
			<path class="st2" d="M272,264.26c0,0-12.04-2.68-13.72-2.73s-12.4,3.98-12.4,3.98s0.56,2.02,3.78,1.66
				c1.96-0.22,5.37-1.63,5.37-1.63l2.48,0.66c0,0-9.95,5.76-11.44,6.55c-1.49,0.8-5.04,4.25-5.67,5.17
				c-0.63,0.92-2.32,3.19-1.69,3.59c0.63,0.4,3.38-1.79,6.17-3.78s8.26-4.37,8.26-4.37s-6.23,5.15-8.39,7.55
				c-2.15,2.4-4.02,4.23-3.23,5.19c0.52,0.64,2.21-0.13,2.21-0.13s0.59,1.32,2.76,0.49c1.07-0.41,3.9-2.85,6.1-4.13
				c2.5-1.45,4.32-2.36,4.32-2.36s-7.07,7.1-6.47,8.19c0.6,1.09,5.43-3.44,6.82-4.38s5.57-3.55,6.12-3.85
				c0.54-0.3,6.29-2.23,9.98-4.13C278.8,272.98,272,264.26,272,264.26z"/>
		</g>
		<g>
			<path class="st1" d="M243.71,286.35c-0.1,0-0.19-0.03-0.27-0.11c-0.16-0.15-0.17-0.4-0.02-0.55c0.17-0.18,4.12-4.39,5.3-5.21
				c1.16-0.8,6.61-4.7,6.61-4.7l0.46,0.64c0,0-5.46,3.9-6.62,4.71c-1.11,0.77-5.14,5.05-5.18,5.1
				C243.92,286.31,243.81,286.35,243.71,286.35z"/>
		</g>
	</g>
	<g>
		<path class="st8" d="M291.03,285.43c0,0-4.33,12.12,1.89,20.22c6.22,8.11,10.85,17.12,8.33,24.7s-3.23,19.43,5.04,27.66
			c8.27,8.23,14.28,8.31,19.29,15.85c2.74,4.13,8.07,14.66,8.07,14.66s9.5-17.48,7.67-29.96s-16.37-18.34-16.36-27.1
			c0.01-8.77,2-25.69-11.63-30.78C298.8,295.26,291.03,285.43,291.03,285.43z"/>
	</g>
	<g>
		<g>
			<path class="st6" d="M325.89,399.43c-1.3,0.54-19.44-11.16-27.43-23.59c-7.99-12.43-15.66-11.98-27.24-16.46
				c-16.55-6.4-23.02-30.3-23.02-30.3s16.76,14.44,31.98,14.21c15.22-0.23,21.47-2.64,29.81,5.57c9.64,9.49,12.67,15.53,15.76,26.3
				C330.3,391.01,325.89,399.43,325.89,399.43z"/>
		</g>
		<g>
			<path class="st1" d="M331.62,418.65c-0.37,0-0.7-0.25-0.78-0.63c-0.07-0.31-6.89-31.46-19.83-46.3
				c-8.58-9.84-12.5-11.91-29.98-15.82c-9.42-2.11-18.03-9.18-23.6-14.74c-6-6-9.85-11.58-9.89-11.64c-0.25-0.36-0.16-0.86,0.21-1.1
				c0.36-0.25,0.86-0.16,1.1,0.21c0.15,0.22,15.15,21.84,32.52,25.73c17.73,3.97,22.05,6.26,30.83,16.33
				c13.21,15.15,19.91,45.71,20.18,47.01c0.09,0.43-0.18,0.85-0.61,0.94C331.73,418.65,331.68,418.65,331.62,418.65z"/>
		</g>
	</g>
	<g>
		<path class="st1" d="M335.98,416.86c-0.41,0-0.76-0.31-0.79-0.73c-0.03-0.35-2.94-34.89-3.65-41.63
			c-1.16-11.01-5.5-16.26-12.69-24.94l-0.67-0.81c-6.06-7.32-6.25-16.23-6.43-24.09c-0.05-2.25-0.1-4.38-0.28-6.36
			c-0.77-8.46-15.23-17.67-15.38-17.77c-0.37-0.23-0.48-0.72-0.25-1.1c0.23-0.37,0.72-0.48,1.1-0.25
			c0.62,0.39,15.27,9.73,16.11,18.96c0.19,2.04,0.23,4.19,0.29,6.47c0.17,7.6,0.36,16.21,6.07,23.11l0.67,0.81
			c7.13,8.61,11.84,14.3,13.05,25.79c0.71,6.76,3.62,41.32,3.65,41.67c0.04,0.44-0.29,0.82-0.72,0.86
			C336.03,416.86,336,416.86,335.98,416.86z"/>
	</g>
	<g>
		<rect x="316.78" y="413.17" class="st3" width="45.71" height="64.92"/>
	</g>
</g>
</svg>
